<?xml version="1.0" standalone="no"?>
<!DOCTYPE svg PUBLIC "-//W3C//DTD SVG 1.1//EN" "http://www.w3.org/Graphics/SVG/1.1/DTD/svg11.dtd" >
<svg xmlns="http://www.w3.org/2000/svg" xmlns:xlink="http://www.w3.org/1999/xlink" version="1.1">
<metadata></metadata>
<defs>
<font id="webfontregular" horiz-adv-x="845" >
<font-face units-per-em="2048" ascent="1536" descent="-512" />
<missing-glyph horiz-adv-x="389" />
<glyph horiz-adv-x="0" />
<glyph unicode="&#xd;" horiz-adv-x="389" />
<glyph unicode=" "  horiz-adv-x="389" />
<glyph unicode="&#x09;" horiz-adv-x="389" />
<glyph unicode="&#xa0;" horiz-adv-x="389" />
<glyph unicode="!" horiz-adv-x="464" d="M0 0l55 315h271l-56 -315h-270zM129 453l10 346l101 565h272l-100 -565l-111 -346h-172z" />
<glyph unicode="&#x22;" horiz-adv-x="784" d="M137 840l92 524h242l-92 -524h-242zM516 840l92 524h242l-92 -524h-242z" />
<glyph unicode="#" horiz-adv-x="1124" d="M33 369l43 192h164l59 266h-166l41 193h166l78 344h217l-78 -344h215l78 344h217l-78 -344h160l-41 -193h-160l-59 -266h160l-39 -192h-164l-80 -369h-217l80 369h-215l-80 -369h-217l80 369h-164zM457 561h215l59 266h-215z" />
<glyph unicode="$" horiz-adv-x="798" d="M20 57l54 232q49 -20 103 -31.5t106 -11.5q106 0 140 50t34 142q0 20 -7.5 37t-23.5 33t-44 36.5t-69 49.5q-104 74 -145 136.5t-41 139.5q0 221 73.5 335t233.5 143l41 227h215l-41 -223q55 -6 102.5 -20.5t88.5 -33.5l-56 -227q-49 18 -114.5 32.5t-118.5 14.5 q-74 0 -105.5 -33.5t-31.5 -103.5q0 -27 4 -42t17.5 -29.5t37 -32t62.5 -48.5q68 -51 107.5 -85.5t62 -67.5t29.5 -67t7 -83q0 -74 -13 -154.5t-50 -151t-100.5 -125t-161.5 -77.5l-33 -188h-215l31 180q-102 10 -179 47z" />
<glyph unicode="%" horiz-adv-x="1576" d="M127 821q0 23 6 58l43 241q12 68 34.5 119t60.5 84t95.5 49.5t139.5 16.5q119 0 178 -58.5t59 -156.5q0 -14 -1 -32t-5 -32l-41 -231q-10 -61 -32.5 -110.5t-60.5 -84.5t-94 -54.5t-136 -19.5q-129 0 -187.5 59.5t-58.5 151.5zM348 854q-8 -57 53 -57q66 0 74 57l51 289 q10 59 -53 59q-66 0 -74 -57zM387 72l680 1317l176 -99l-680 -1315zM887 186q0 23 6 58l43 241q12 68 34.5 119t60.5 84t95.5 49.5t139.5 16.5q119 0 178 -58.5t59 -156.5q0 -14 -1 -32t-5 -32l-41 -231q-10 -61 -32.5 -110.5t-60.5 -84.5t-94.5 -54.5t-135.5 -19.5 q-129 0 -187.5 59.5t-58.5 151.5zM1108 219q-8 -57 53 -57q66 0 74 57l51 289q10 59 -53 59q-66 0 -74 -57z" />
<glyph unicode="&#x26;" horiz-adv-x="1228" d="M49 242q0 18 2 39.5t6 44.5l62 350q31 180 126 261t249 81q70 0 130 -13.5t104 -43t69.5 -76t25.5 -109.5q0 -43 -16 -94t-49 -90h184q59 0 109.5 13t89.5 32l51 -178q-53 -31 -120.5 -48.5t-143.5 -21.5q-47 -76 -103.5 -149.5t-127 -131t-157.5 -93t-196 -35.5 q-63 0 -117.5 15t-93.5 47t-61.5 81t-22.5 119zM317 254q0 -27 16.5 -43t51.5 -16q150 0 268 194h-133l-51 203q51 18 83 55t32 84q0 35 -19.5 56.5t-60.5 21.5q-47 0 -72.5 -22.5t-36.5 -75.5l-71 -410q-2 -8 -4.5 -22.5t-2.5 -24.5z" />
<glyph unicode="'" horiz-adv-x="405" d="M137 840l92 524h242l-92 -524h-242z" />
<glyph unicode="(" horiz-adv-x="655" d="M111 403q0 184 33.5 350.5t99 317t161 291.5t216.5 276l186 -141q-96 -127 -174 -250t-133.5 -252t-86 -267t-30.5 -296q0 -139 28.5 -280.5t94.5 -323.5l-223 -107q-86 176 -129 335t-43 347z" />
<glyph unicode=")" horiz-adv-x="657" d="M-100 -137q96 125 174 249t133 253t86 267t31 296q0 139 -29 280.5t-94 323.5l223 106q86 -176 129 -334.5t43 -347.5q0 -184 -34 -350t-99.5 -316.5t-160.5 -291.5t-216 -277z" />
<glyph unicode="*" horiz-adv-x="774" d="M172 1034l25 144h182l-70 172l140 55l63 -166l121 166l104 -86l-108 -141h178l-25 -144h-186l70 -174l-138 -53l-63 162l-121 -162l-106 80l112 147h-178z" />
<glyph unicode="+" horiz-adv-x="925" d="M123 586v233h250v309h262v-309h250v-233h-250v-310h-262v310h-250z" />
<glyph unicode="," horiz-adv-x="430" d="M-45 -203l121 203h-84l55 315h270l-57 -317l-197 -274z" />
<glyph unicode="-" horiz-adv-x="612" d="M78 461l41 235h442l-41 -235h-442z" />
<glyph unicode="." horiz-adv-x="438" d="M0 0l55 315h271l-56 -315h-270z" />
<glyph unicode="/" horiz-adv-x="827" d="M-74 -240l713 1624h283l-713 -1624h-283z" />
<glyph unicode="0" horiz-adv-x="952" d="M41 262q0 23 1 40t5 36l121 684q66 367 455 367q176 0 260 -81t84 -208q0 -41 -6 -78l-121 -684q-29 -168 -137.5 -265.5t-319.5 -97.5q-174 0 -258 79t-84 208zM317 326q-22 -113 103 -113q119 0 141 113l127 718q18 106 -102 107q-123 0 -142 -104z" />
<glyph unicode="1" horiz-adv-x="673" d="M92 1063l402 301h225l-240 -1364h-274l176 997l-178 -118z" />
<glyph unicode="2" horiz-adv-x="823" d="M-35 0l37 215l406 467q33 39 57 68.5t42.5 58.5t30 59.5t17.5 71.5l16 94q10 63 -19.5 90t-94.5 27q-74 0 -142.5 -15.5t-128.5 -35.5l-8 227q59 29 150.5 45.5t189.5 16.5q160 0 248 -66t88 -201q0 -23 -2 -47t-6 -41l-10 -57q-12 -63 -24.5 -116.5t-36 -103.5 t-60.5 -102.5t-99 -113.5l-297 -303h402l-41 -238h-715z" />
<glyph unicode="3" horiz-adv-x="802" d="M-20 33l55 221q117 -45 229 -45q84 0 118 29.5t46 97.5l18 106q2 10 3.5 19.5t1.5 17.5q0 51 -29 70.5t-80 19.5h-205l41 240h187q74 0 105.5 27.5t41.5 81.5l20 116q12 72 -23.5 96.5t-105.5 24.5q-47 0 -102 -8t-102 -21v220q51 18 139 30.5t174 12.5q307 0 307 -246 q0 -51 -8 -86l-23 -127q-16 -98 -61 -151.5t-133 -80.5q63 -16 99 -60t36 -120q0 -18 -2 -37.5t-6 -38.5l-21 -118q-14 -82 -41.5 -146.5t-77 -109.5t-124 -69t-183.5 -24q-61 0 -143 14.5t-151 43.5z" />
<glyph unicode="4" horiz-adv-x="925" d="M4 303l39 221l545 840h309l-145 -827h149l-39 -234h-151l-54 -303h-260l54 303h-447zM295 537h197l81 460z" />
<glyph unicode="5" horiz-adv-x="815" d="M2 8l49 232q59 -16 108.5 -21.5t102.5 -5.5q104 0 142 37t51 108l14 84q2 10 3 19.5t1 19.5q0 49 -28.5 73t-100.5 24h-238l140 786h614l-43 -238h-338l-55 -311h27q156 0 230.5 -60.5t74.5 -201.5q0 -27 -3 -49.5t-8 -50.5l-18 -105q-35 -193 -139.5 -283t-304.5 -90 q-31 0 -68 2.5t-76 6.5t-74.5 10t-62.5 14z" />
<glyph unicode="6" horiz-adv-x="890" d="M43 270q0 25 2 44.5t6 45.5l115 650q18 98 52 169.5t89 117.5t135 69t189 23q78 0 156.5 -13.5t140.5 -36.5l-47 -219q-47 16 -110.5 28.5t-127.5 12.5q-51 0 -87 -8t-59.5 -28.5t-39 -54.5t-23.5 -83l-35 -196q41 18 89.5 27t93.5 9q125 0 194.5 -63.5t69.5 -181.5 q0 -20 -2 -42t-6 -40l-31 -174q-31 -174 -129 -262.5t-305 -88.5q-160 0 -245 77t-85 218zM311 274q0 -41 25.5 -57t64.5 -16q113 0 131 100l35 199q18 100 -84 100q-35 0 -64.5 -7t-58.5 -22l-47 -268q-2 -10 -2 -17v-12z" />
<glyph unicode="7" horiz-adv-x="798" d="M-6 0l584 1128h-412l41 236h704l-34 -199l-594 -1165h-289z" />
<glyph unicode="8" horiz-adv-x="925" d="M33 242q0 35 6 71l16 95q18 104 67.5 174.5t153.5 111.5q-53 41 -77.5 92.5t-24.5 112.5q0 29 6 64l17 96q14 82 41.5 143.5t75.5 102.5t122 62.5t182 21.5q313 0 314 -254q0 -37 -6 -76l-19 -107q-14 -78 -59 -148.5t-133 -109.5q70 -41 98.5 -93t28.5 -124 q0 -35 -6 -71l-17 -95q-31 -176 -136 -256t-314 -80q-150 0 -243 68t-93 199zM305 270q0 -82 103 -82q119 0 141 115l16 92q2 10 3 22.5t1 24.5q0 41 -21.5 70t-74.5 61q-39 -20 -64.5 -38.5t-43 -39t-25.5 -45t-14 -55.5l-17 -92q-2 -10 -3 -17t-1 -16zM446 913 q0 -35 16.5 -60.5t53.5 -53.5q55 29 83 63.5t38 89.5l20 117q2 10 3.5 18.5t1.5 14.5q0 74 -80 74q-53 0 -76 -21.5t-33 -75.5l-22 -127q-2 -10 -3.5 -19t-1.5 -20z" />
<glyph unicode="9" horiz-adv-x="892" d="M31 31l47 217q47 -18 110.5 -31.5t122.5 -13.5q104 0 145.5 40t57.5 134l35 196q-41 -18 -89 -27t-93 -9q-125 0 -195 63.5t-70 181.5q0 20 2 42t7 40l30 174q29 172 127 261.5t307 89.5q160 0 245 -77t85 -218q0 -25 -2 -44.5t-6 -45.5l-115 -650q-16 -94 -48 -164.5 t-85 -118.5t-130 -72t-183 -24q-37 0 -78 4.5t-81 12.5t-78 17t-68 22zM381 864q-18 -100 84 -100q35 0 64.5 7t58.5 22l47 268q2 10 2 17v12q0 41 -25.5 57t-64.5 16q-113 0 -131 -100z" />
<glyph unicode=":" horiz-adv-x="456" d="M0 0l55 315h271l-56 -315h-270zM102 578l56 315h270l-55 -315h-271z" />
<glyph unicode=";" horiz-adv-x="456" d="M-37 -203l121 203h-84l55 315h271l-58 -317l-196 -274zM102 578l56 315h270l-55 -315h-271z" />
<glyph unicode="&#x3c;" horiz-adv-x="892" d="M100 573v258l676 318l86 -227l-487 -220l487 -219l-86 -227z" />
<glyph unicode="=" horiz-adv-x="978" d="M139 389v236h762v-236h-762zM139 782v234h762v-234h-762z" />
<glyph unicode="&#x3e;" horiz-adv-x="892" d="M113 483l487 219l-487 220l86 227l675 -318v-258l-675 -317z" />
<glyph unicode="?" horiz-adv-x="778" d="M102 0l56 315h270l-55 -315h-271zM190 614l244 211q43 39 65.5 68t32.5 86l11 55q2 10 2 17.5v13.5q0 47 -31 64.5t-86 17.5q-53 0 -102.5 -8.5t-96.5 -28.5l-34 221q66 31 144.5 44.5t164.5 13.5q147 0 232 -62.5t85 -204.5q0 -20 -2 -44.5t-6 -41.5l-12 -71 q-8 -49 -20.5 -88t-34 -76t-55.5 -73t-83 -77l-266 -221z" />
<glyph unicode="@" horiz-adv-x="1318" d="M113 627q0 178 44 319t128 239.5t205.5 151t277.5 52.5q121 0 219 -38t167 -105.5t106.5 -164t37.5 -213.5q0 -233 -95 -357t-273 -124q-131 0 -178 90q-25 -29 -66 -51.5t-88 -22.5q-72 0 -106.5 41t-34.5 105q0 10 1 21.5t3 21.5l41 225q18 104 73.5 147.5t155.5 43.5 q72 0 137.5 -20.5t120.5 -57.5l-67 -385h18q47 0 78 26.5t49 71.5t25.5 101.5t7.5 115.5q0 160 -86 254t-260 94q-115 0 -196 -44t-133 -122.5t-76.5 -187.5t-24.5 -238q0 -104 24.5 -189t77.5 -144.5t139 -92t209 -32.5q80 0 162 17.5t141 41.5l39 -170q-70 -35 -171 -53.5 t-189 -18.5q-311 0 -477 170t-166 482zM653 594q-4 -16 4.5 -22.5t20.5 -6.5t28.5 5t28.5 16l45 245q-10 4 -21 8.5t-28 4.5q-33 0 -39 -35z" />
<glyph unicode="A" horiz-adv-x="937" d="M-86 0l543 1364h315l72 -1364h-281l2 276h-264l-92 -276h-295zM387 524h180l2 545z" />
<glyph unicode="B" horiz-adv-x="923" d="M0 0l240 1364h436q262 0 262 -205q0 -20 -2 -40.5t-6 -37.5l-29 -161q-16 -86 -61 -135.5t-144 -77.5q82 -14 129 -59.5t47 -131.5q0 -16 -1 -29.5t-5 -31.5l-24 -144q-25 -139 -125.5 -225t-288.5 -86h-428zM324 233h120q57 0 83 25t34 70l27 149q2 10 2 17.5v11.5 q0 72 -82 72h-125zM426 811h92q47 0 68.5 22.5t27.5 61.5l27 152q2 10 3 18t1 16q0 29 -15.5 39t-43.5 10h-105z" />
<glyph unicode="C" horiz-adv-x="757" d="M20 289q0 29 2.5 48t6.5 48l106 602q18 100 49 175t83 125t128 76t185 26q76 0 145.5 -10.5t124.5 -32.5l-49 -234q-35 12 -82 21.5t-103 9.5q-104 0 -145 -40t-57 -138l-101 -570q-6 -35 -6 -59q0 -59 32 -87t105 -28q53 0 103.5 6t97.5 17v-228q-53 -16 -124.5 -28.5 t-143.5 -12.5q-96 0 -164 22.5t-111 64.5t-62.5 99.5t-19.5 127.5z" />
<glyph unicode="D" horiz-adv-x="976" d="M0 0l240 1364h419q162 0 249 -65.5t87 -213.5q0 -39 -3 -68.5t-9 -66.5l-98 -555q-18 -109 -53 -183.5t-90.5 -121.5t-133.5 -68.5t-182 -21.5h-426zM326 246h114q82 0 115 39t49 123l98 555q6 37 7 63q0 49 -25 70.5t-88 21.5h-117z" />
<glyph unicode="E" horiz-adv-x="837" d="M0 0l240 1364h678l-44 -246h-395l-55 -307h360l-43 -246h-360l-55 -319h397l-43 -246h-680z" />
<glyph unicode="F" horiz-adv-x="800" d="M0 0l240 1364h682l-43 -246h-400l-61 -348h364l-43 -246h-364l-92 -524h-283z" />
<glyph unicode="G" horiz-adv-x="919" d="M29 293q0 25 2 47t6 43l104 594q18 109 50 186.5t87.5 127.5t136.5 74t197 24q94 0 189.5 -16.5t161.5 -47.5l-52 -235q-57 20 -130.5 36.5t-151.5 16.5q-102 0 -146.5 -42t-62.5 -149l-103 -579q-6 -37 -6 -60q0 -51 31 -75.5t107 -24.5q41 0 86 10l77 445h265 l-113 -643q-80 -27 -168 -38.5t-174 -11.5q-186 0 -289.5 81t-103.5 237z" />
<glyph unicode="H" horiz-adv-x="1005" d="M0 0l240 1364h282l-98 -559h256l98 559h283l-240 -1364h-282l98 559h-256l-98 -559h-283z" />
<glyph unicode="I" horiz-adv-x="479" d="M6 0l240 1364h282l-239 -1364h-283z" />
<glyph unicode="J" horiz-adv-x="464" d="M-195 -236q72 45 126.5 101.5t68.5 134.5l240 1364h282l-241 -1364q-12 -72 -36 -130t-64 -109.5t-96 -96.5t-134 -88z" />
<glyph unicode="K" horiz-adv-x="974" d="M0 0l240 1364h282l-239 -1364h-283zM426 696l330 668h323l-366 -678l161 -686h-303z" />
<glyph unicode="L" horiz-adv-x="755" d="M0 0l240 1364h282l-196 -1118h336l-44 -246h-618z" />
<glyph unicode="M" horiz-adv-x="1302" d="M-16 0l276 1364h297l98 -784l392 784h292l-204 -1364h-273l139 805l-253 -524h-273l-67 524l-144 -805h-280z" />
<glyph unicode="N" horiz-adv-x="1067" d="M0 0l240 1364h274l199 -778l137 778h272l-239 -1364h-277l-196 778l-138 -778h-272z" />
<glyph unicode="O" horiz-adv-x="970" d="M37 289q0 27 3 52.5t7 53.5l100 570q18 104 50 183t88.5 133t140.5 81t207 27q98 0 165.5 -24t110.5 -64.5t61.5 -98t18.5 -125.5q0 -29 -3 -56.5t-7 -55.5l-100 -570q-16 -96 -47 -174t-87.5 -132t-142.5 -84t-211 -30q-96 0 -163.5 24t-109.5 64.5t-61.5 99 t-19.5 126.5zM317 315q0 -45 25 -69.5t90 -24.5q80 0 114 39t46 111l110 626q6 31 7 56q0 45 -25 67.5t-90 22.5q-84 0 -116 -37t-44 -109l-110 -626q-6 -35 -7 -56z" />
<glyph unicode="P" horiz-adv-x="923" d="M0 0l240 1364h434q317 0 317 -254q0 -23 -3 -47.5t-7 -52.5l-31 -174q-14 -80 -43.5 -143.5t-80 -107.5t-124 -67.5t-176.5 -23.5h-157l-86 -494h-283zM412 735h127q63 0 90.5 26.5t38.5 86.5l30 174q2 10 3 18.5t1 14.5q0 41 -24.5 54t-71.5 13h-127z" />
<glyph unicode="Q" horiz-adv-x="970" d="M37 289q0 27 3 52.5t7 53.5l100 570q18 104 50 183t88.5 133t140.5 81t207 27q98 0 165.5 -24t110.5 -64.5t61.5 -98t18.5 -125.5q0 -29 -3 -56.5t-7 -55.5l-100 -570q-16 -96 -47 -174t-87.5 -132t-142.5 -84t-211 -30q-96 0 -163.5 24t-109.5 64.5t-61.5 99 t-19.5 126.5zM178 -317l45 221q123 -2 231.5 -17.5t219.5 -44.5l-53 -221q-121 27 -223.5 42t-219.5 20zM317 315q0 -45 25 -69.5t90 -24.5q80 0 114 39t46 111l110 626q6 31 7 56q0 45 -25 67.5t-90 22.5q-84 0 -116 -37t-44 -109l-110 -626q-6 -35 -7 -56z" />
<glyph unicode="R" horiz-adv-x="1005" d="M0 0l240 1364h456q160 0 239 -58.5t79 -193.5q0 -20 -3 -44t-7 -52l-31 -172q-10 -55 -24.5 -101.5t-39 -83t-63.5 -66.5t-96 -52l149 -541h-313l-123 498h-94l-86 -498h-283zM412 739h149q59 0 89 24.5t40 84.5l31 164q2 10 3 19t1 20q0 41 -21.5 56t-68.5 15h-156z" />
<glyph unicode="S" horiz-adv-x="800" d="M-16 35l53 237q57 -23 123.5 -37t120.5 -14q84 0 121.5 32t54.5 116q6 37 6 61q0 49 -25.5 74.5t-83.5 56.5q-125 66 -175 140.5t-50 185.5q0 33 4 72.5t12 87.5q16 98 46 164.5t77 105.5t114 55.5t159 16.5q39 0 85 -5.5t90 -14.5t84 -20.5t64 -23.5l-53 -235 q-43 18 -109.5 35.5t-126.5 17.5q-78 0 -108.5 -24.5t-42.5 -96.5q-6 -31 -6 -53q0 -41 26.5 -69t102.5 -69q111 -61 160 -127.5t49 -177.5q0 -35 -4.5 -72.5t-12.5 -82.5q-18 -104 -51 -179t-86 -123.5t-129 -71t-180 -22.5q-72 0 -161 17.5t-148 42.5z" />
<glyph unicode="T" horiz-adv-x="778" d="M117 1118l43 246h760l-43 -246h-240l-197 -1118h-282l196 1118h-237z" />
<glyph unicode="U" horiz-adv-x="989" d="M47 291q0 20 2 40.5t6 39.5l176 993h283l-178 -1004q-2 -10 -3 -21t-1 -24q0 -43 24.5 -68.5t85.5 -25.5q78 0 111 34t43 93l178 1016h283l-178 -1004q-16 -90 -49 -161.5t-90.5 -120.5t-141.5 -76t-201 -27q-168 0 -259 87.5t-91 228.5z" />
<glyph unicode="V" horiz-adv-x="854" d="M147 1364h295l-34 -958l297 958h303l-523 -1364h-309z" />
<glyph unicode="W" horiz-adv-x="1384" d="M147 1364h283l-31 -848l310 848h256l18 -848l262 848h289l-475 -1364h-273l-30 889l-336 -889h-270z" />
<glyph unicode="X" horiz-adv-x="966" d="M-84 0l459 707l-195 657h285l102 -408l250 408h297l-450 -692l210 -672h-282l-119 401l-252 -401h-305z" />
<glyph unicode="Y" horiz-adv-x="866" d="M131 1364h307l47 -563l217 563h328l-459 -872l-86 -492h-282l88 502z" />
<glyph unicode="Z" horiz-adv-x="837" d="M6 217l563 901h-413l43 246h706v-217l-563 -901h414l-43 -246h-703z" />
<glyph unicode="[" horiz-adv-x="571" d="M-16 -262l331 1880h418l-37 -213h-147l-256 -1454h147l-39 -213h-417z" />
<glyph unicode="\" horiz-adv-x="815" d="M213 1384h266l139 -1624h-266z" />
<glyph unicode="]" horiz-adv-x="571" d="M-106 -262l36 213h146l256 1454h-146l37 213h418l-332 -1880h-415z" />
<glyph unicode="^" horiz-adv-x="894" d="M123 795l246 569h270l246 -569l-226 -84l-155 409l-156 -409z" />
<glyph unicode="_" horiz-adv-x="661" d="M-145 -287l28 164h666l-31 -164h-663z" />
<glyph unicode="`" horiz-adv-x="747" d="M317 1290l160 172q55 -59 105.5 -108t109.5 -101l-131 -153q-63 41 -129.5 93t-114.5 97z" />
<glyph unicode="a" d="M12 203q0 51 8 86l78 442q27 158 115 222.5t248 64.5q113 0 216 -32t167 -66l-162 -920h-223l-2 104q-37 -43 -102.5 -83.5t-145.5 -40.5q-55 0 -93 18t-60.5 49t-33 71t-10.5 85zM291 276q0 -55 49 -55q35 0 64.5 17.5t54.5 35.5l88 508q-12 4 -37 9.5t-47 5.5 q-47 0 -67.5 -18.5t-30.5 -69.5l-70 -396q-2 -10 -3 -19t-1 -18z" />
<glyph unicode="b" horiz-adv-x="868" d="M-8 45l239 1360l279 41l-90 -514q47 37 110.5 61.5t124.5 24.5q98 0 149.5 -53.5t51.5 -151.5q0 -33 -6 -70l-74 -419q-31 -174 -129 -259t-295 -85q-37 0 -84 4t-95 12t-95 20.5t-86 28.5zM295 215q45 -10 84 -10q59 0 88 31.5t39 89.5l65 370q8 43 -7 58.5t-46 15.5 q-35 0 -69.5 -11t-63.5 -28z" />
<glyph unicode="c" horiz-adv-x="634" d="M12 225q0 20 2 43t6 45l68 383q29 166 120 244t253 78q61 0 124.5 -11.5t106.5 -31.5l-47 -217q-33 10 -78 18t-84 8q-59 0 -90 -24.5t-41 -85.5l-67 -383q-6 -35 7 -56.5t50 -21.5q51 0 102.5 11.5t92.5 27.5l16 -215q-41 -23 -116.5 -40t-153.5 -17q-141 0 -206 66.5 t-65 178.5z" />
<glyph unicode="d" horiz-adv-x="888" d="M25 207q0 23 2 46t6 48l73 418q29 166 107 232.5t213 66.5q53 0 100 -12.5t88 -28.5l76 428l279 41l-254 -1446h-223l-7 78q-47 -41 -114.5 -69.5t-139.5 -28.5q-115 0 -160.5 66.5t-45.5 160.5zM303 301q-3 -17 -3 -31q0 -20 6 -34q11 -24 52 -23q35 0 69 13.5t60 29.5 l91 508q-49 16 -99 16q-57 0 -77.5 -19.5t-28.5 -64.5z" />
<glyph unicode="e" horiz-adv-x="741" d="M8 231q0 23 2 44.5t6 50.5l62 348q33 180 130 262t257 82q59 0 111.5 -16.5t91.5 -48t61.5 -78t22.5 -107.5q0 -131 -77 -215t-226 -137l-156 -56l-17 -94q-6 -35 9.5 -49t46.5 -14q57 0 131 27.5t143 64.5l51 -201q-82 -51 -184 -82.5t-201 -31.5q-137 0 -200.5 67.5 t-63.5 183.5zM334 590l59 20q66 23 89.5 55.5t23.5 73.5q0 63 -66 64q-41 0 -59.5 -24.5t-26.5 -67.5z" />
<glyph unicode="f" horiz-adv-x="589" d="M-125 -276q63 63 104 132.5t58 168.5l131 739h-94l41 233h94l33 187q25 141 90 201.5t205 60.5q63 0 117.5 -12.5t88.5 -28.5l-45 -215q-65 22 -118 22h-5q-31 0 -47 -13t-22 -48l-27 -154h176l-43 -233h-174l-135 -764q-12 -76 -38.5 -140.5t-60.5 -118.5t-73 -95 t-78 -70z" />
<glyph unicode="g" horiz-adv-x="884" d="M-27 -352l54 209q66 -27 135 -44.5t131 -17.5q51 0 85 17.5t44 70.5l39 223q-59 -41 -126 -63.5t-114 -22.5q-104 0 -150 56.5t-46 148.5q0 47 8 78l65 371q16 94 43 159.5t72 106.5t113.5 59.5t169.5 18.5q104 0 206.5 -25.5t176.5 -62.5l-191 -1080 q-27 -147 -122 -210.5t-249 -63.5q-37 0 -82 5t-91 14.5t-90 22.5t-81 30zM307 326q-8 -43 7.5 -59.5t45.5 -16.5q35 0 73 12t61 29l84 477q-37 16 -89 16q-53 0 -79.5 -17t-36.5 -71z" />
<glyph unicode="h" horiz-adv-x="864" d="M-10 0l246 1405l278 41l-90 -516q49 35 115.5 61.5t132.5 26.5q174 0 174 -160q0 -16 -1 -31.5t-3 -25.5l-142 -801h-270l125 709q1 8 1 15q0 40 -38 40q-27 0 -64.5 -12.5t-66.5 -28.5l-127 -723h-270z" />
<glyph unicode="i" horiz-adv-x="436" d="M-8 0l170 975l278 41l-178 -1016h-270zM184 1100l52 301l278 41l-51 -301z" />
<glyph unicode="j" horiz-adv-x="436" d="M-190 -250q70 49 117.5 101.5t60.5 123.5l174 1000l278 41l-186 -1063q-23 -131 -102.5 -218t-202.5 -159zM184 1100l52 301l278 41l-51 -301z" />
<glyph unicode="k" horiz-adv-x="841" d="M-10 0l248 1405l276 41l-254 -1446h-270zM362 504l261 514l284 -45l-268 -486l125 -487h-283z" />
<glyph unicode="l" horiz-adv-x="434" d="M-10 0l248 1405l276 41l-254 -1446h-270z" />
<glyph unicode="m" horiz-adv-x="1284" d="M-10 0l170 973l233 43l10 -96q49 37 120 67.5t139 30.5q70 0 108.5 -25.5t54.5 -72.5q55 43 128 70.5t139 27.5q174 0 174 -160q0 -16 -1 -31.5t-3 -25.5l-142 -801h-270l125 709q1 8 1 15q0 40 -38 40q-25 0 -58.5 -12.5t-62.5 -28.5l-127 -723h-270l125 709q1 8 1 15 q0 40 -38 40q-25 0 -58.5 -12.5t-62.5 -28.5l-127 -723h-270z" />
<glyph unicode="n" horiz-adv-x="864" d="M-10 0l170 973l233 43l10 -96q51 37 124 67.5t145 30.5q174 0 174 -160q0 -16 -1 -31.5t-3 -25.5l-142 -801h-270l125 709q1 8 1 15q0 40 -38 40q-27 0 -64.5 -12.5t-66.5 -28.5l-127 -723h-270z" />
<glyph unicode="o" d="M16 285q0 41 7 75l53 304q31 174 121 264t274 90q70 0 134.5 -16.5t113.5 -51.5t77.5 -89t28.5 -128q0 -33 -6 -69l-55 -316q-14 -84 -42 -151.5t-74 -115.5t-117 -74.5t-171 -26.5q-72 0 -135 19t-109 58t-73 96.5t-27 131.5zM285 315q-2 -12 -2 -24q0 -29 15 -53 q21 -32 75 -33q53 0 78.5 26.5t33.5 71.5l68 381q3 16 3 30q0 29 -14 49q-20 30 -73 30t-80 -21.5t-37 -75.5z" />
<glyph unicode="p" horiz-adv-x="882" d="M-88 -444l250 1417l227 35l6 -88q47 41 115 69.5t139 28.5q111 0 161 -54.5t50 -158.5q0 -23 -3 -46.5t-7 -49.5l-76 -430q-29 -166 -106.5 -232.5t-212.5 -66.5q-53 0 -100.5 12t-88.5 28l-76 -423zM303 229q49 -16 98 -16q57 0 78 20.5t29 65.5l70 397q8 41 -3.5 62.5 t-52.5 21.5q-35 0 -68.5 -13t-60.5 -30z" />
<glyph unicode="q" horiz-adv-x="884" d="M18 186q0 16 1 34t6 34l73 420q18 98 50 164.5t81.5 106.5t118 56.5t160.5 16.5q104 0 202.5 -26.5t168.5 -61.5l-236 -1333l-278 -41l90 510q-41 -35 -107.5 -60.5t-128.5 -25.5q-98 0 -149.5 56t-51.5 150zM301 291q-8 -43 7.5 -58.5t45.5 -15.5q37 0 71 11.5t62 27.5 l93 518q-45 10 -84 10q-59 0 -88 -27.5t-39 -84.5z" />
<glyph unicode="r" horiz-adv-x="544" d="M-10 0l172 975l229 41l2 -139q29 43 72 81.5t104 59.5l35 -260q-70 -20 -118 -40t-107 -48l-119 -670h-270z" />
<glyph unicode="s" horiz-adv-x="657" d="M-20 35l53 213q41 -20 96 -32.5t109 -12.5q47 0 65.5 15t26.5 61q4 25 1 40t-13.5 25t-27 18.5t-36.5 18.5q-102 51 -141 103.5t-39 129.5q0 29 4 60t10 67q25 141 95.5 209t222.5 68q86 0 154.5 -16.5t123.5 -45.5l-53 -213q-41 20 -93.5 36t-99.5 16t-64.5 -15.5 t-25.5 -58.5q-6 -39 6.5 -55.5t51.5 -36.5q51 -27 88.5 -50.5t62.5 -50t37 -60.5t12 -79q0 -23 -2 -49t-8 -59q-27 -154 -107.5 -227.5t-234.5 -73.5q-31 0 -67.5 4t-73.5 11t-72 17.5t-61 22.5z" />
<glyph unicode="t" horiz-adv-x="593" d="M51 764l41 233h105l45 258l276 23l-49 -281h188l-47 -233h-184l-88 -508q-2 -8 -2 -14q0 -33 43 -33q33 0 66.5 7t60.5 17l10 -202q-47 -23 -109.5 -37t-125.5 -14q-104 0 -164 54t-60 148q0 16 1 28.5t3 22.5l95 531h-105z" />
<glyph unicode="u" horiz-adv-x="856" d="M10 154q0 16 1 27.5t5 27.5l138 778l272 17l-125 -717q-1 -9 -1 -16q0 -41 38 -42q27 0 61.5 11.5t59.5 25.5l127 721l272 17l-176 -1004h-229l-9 78q-57 -39 -127.5 -68.5t-136.5 -29.5q-86 0 -128 49t-42 125z" />
<glyph unicode="v" horiz-adv-x="776" d="M68 967l268 41l53 -721l125 428q12 45 19.5 83t7.5 74q0 31 -2 51.5t-7 51.5l267 41q18 -78 18 -139q0 -74 -41 -185l-266 -692h-317z" />
<glyph unicode="w" horiz-adv-x="1153" d="M57 967l256 39q14 -72 25.5 -137.5t19 -131t10.5 -134t3 -146.5v-56.5t-2 -56.5l163 389l-45 223l226 45l110 -669l68 391q8 41 8 92q0 47 -4 81t-12 79l260 41q18 -74 18 -154q0 -35 -3 -69.5t-13 -69.5l-195 -723h-264l-84 414l-174 -414h-256q-8 135 -17.5 256 t-21.5 237.5t-30.5 233.5t-45.5 240z" />
<glyph unicode="x" horiz-adv-x="780" d="M-82 0l332 504l-166 471l256 41l86 -297l156 278h286l-350 -510l178 -487h-266l-86 254l-147 -254h-279z" />
<glyph unicode="y" horiz-adv-x="774" d="M2 -244q82 37 141.5 91.5t100.5 152.5h-70l-104 967l272 41l47 -738l127 445q12 45 19.5 83t7.5 74q0 31 -2 51.5t-6 51.5l266 41q8 -35 13 -69t5 -70q0 -74 -41 -185l-258 -667q-33 -84 -66.5 -153t-79.5 -125t-110.5 -103t-157.5 -88z" />
<glyph unicode="z" horiz-adv-x="700" d="M-16 188l415 590h-313l37 219h594l4 -188l-418 -590h324l-37 -219h-598z" />
<glyph unicode="{" horiz-adv-x="628" d="M59 571l39 220h52q47 0 64 17t24 52l86 488q14 78 37.5 130t58.5 82.5t84 44t114 13.5h173l-33 -213h-72q-43 0 -63.5 -14.5t-30.5 -65.5l-76 -430q-18 -102 -65.5 -153.5t-157.5 -61.5q86 -6 119.5 -46t33.5 -110q0 -25 -6 -57l-75 -430q-2 -10 -3.5 -16.5t-1.5 -12.5 q0 -27 15.5 -39t54.5 -12h72l-35 -215h-139q-242 0 -242 217q0 20 2 42t6 46l78 440q2 10 3 17.5t1 15.5q0 51 -65 51h-52z" />
<glyph unicode="|" horiz-adv-x="696" d="M246 -258v1876h266v-1876h-266z" />
<glyph unicode="}" horiz-adv-x="628" d="M-106 -258l32 213h72q43 0 63.5 14.5t30.5 65.5l76 430q18 102 65.5 153.5t157.5 61.5q-86 6 -119.5 46t-33.5 110q0 23 6 57l75 430q2 10 3.5 16.5t1.5 12.5q0 27 -15.5 39t-54.5 12h-72l35 215h139q242 0 242 -217q0 -20 -2 -42t-6 -46l-78 -441q-2 -10 -3 -17t-1 -15 q0 -25 14.5 -38.5t50.5 -13.5h52l-39 -219h-51q-47 0 -64.5 -17t-24.5 -52l-86 -488q-14 -78 -37.5 -130t-59.5 -82.5t-84 -44t-113 -13.5h-172z" />
<glyph unicode="~" horiz-adv-x="882" d="M102 569q4 74 18.5 134.5t42 103.5t68.5 67.5t99 24.5q51 0 85 -11t81 -38q49 -29 74.5 -44t50.5 -15q35 0 45 32.5t16 75.5l184 -65q-2 -154 -53.5 -240t-155.5 -86q-53 0 -84.5 12t-78.5 39q-37 23 -69 41t-60 18q-35 0 -47.5 -31.5t-22.5 -78.5z" />
<glyph unicode="&#xa1;" horiz-adv-x="475" d="M-61 -403l108 608l111 346h172l-11 -346l-108 -608h-272zM129 682l55 315h271l-56 -315h-270z" />
<glyph unicode="&#xa2;" horiz-adv-x="737" d="M78 430q0 51 8 92l59 336q45 264 261 309l36 197h230l-37 -195q33 -6 62.5 -14t52.5 -18l-48 -217q-33 10 -77.5 18t-83.5 8q-59 0 -90 -24.5t-41 -85.5l-60 -336q-2 -10 -2 -15.5v-9.5q0 -57 60 -57q51 0 102 11t92 28l16 -215q-27 -14 -68.5 -26.5t-92.5 -22.5 l-35 -193h-229l36 201q-78 25 -114.5 84t-36.5 145z" />
<glyph unicode="&#xa3;" horiz-adv-x="915" d="M-20 0l32 190q94 90 142.5 174.5t72.5 184.5h-151l41 229h155l45 256q33 190 128.5 272.5t263.5 82.5q86 0 158.5 -15.5t119.5 -40.5l-47 -213q-35 14 -89 23.5t-108 9.5q-74 0 -108.5 -34t-48.5 -120l-39 -221h276l-39 -229h-282q-27 -92 -71 -170t-118 -141h455 l-41 -238h-747z" />
<glyph unicode="&#xa4;" horiz-adv-x="1017" d="M41 287l137 119q-4 23 -7 45t-3 45t2 43t6 45l35 198q18 117 76 195l-94 115l188 159l106 -131q61 20 140 21q63 0 125 -17l151 129l141 -170l-135 -114q14 -41 15 -99q0 -23 -2 -45t-7 -43l-34 -198q-20 -115 -78 -197l98 -119l-186 -159l-113 135q-61 -18 -137 -19 q-37 0 -67.5 3t-59.5 14l-152 -129zM420 514q0 -33 20.5 -52.5t63.5 -19.5q51 0 78.5 26t35.5 69l52 292q8 43 -11.5 69t-70.5 26t-79 -26t-36 -69l-51 -292q-2 -10 -2 -14.5v-8.5z" />
<glyph unicode="&#xa5;" horiz-adv-x="931" d="M43 287l37 209h237l2 6l-20 139h-193l37 209h125l-75 514h266l53 -596l219 596h287l-252 -514h125l-37 -209h-190l-70 -145h233l-36 -209h-236l-49 -287h-275l50 287h-238z" />
<glyph unicode="&#xa6;" horiz-adv-x="696" d="M246 -258v797h266v-797h-266zM246 821v797h266v-797h-266z" />
<glyph unicode="&#xa7;" horiz-adv-x="993" d="M147 782q0 166 25 299q29 160 106.5 234t233.5 74q78 0 140.5 -13.5t109.5 -36.5l-47 -192q-55 18 -95 28.5t-85 10.5q-47 0 -76 -21.5t-39 -72.5q-16 -82 -22.5 -165t-6.5 -171q0 -166 22.5 -339t59.5 -360l-223 -57q-102 438 -103 782zM242 -334l47 193 q55 -18 95 -28.5t85 -10.5q47 0 75.5 21.5t39.5 72.5q16 82 22 165t6 171q0 166 -22.5 339t-59.5 359l224 58q102 -438 102 -783q0 -168 -25 -299q-29 -160 -106.5 -233.5t-232.5 -73.5q-78 0 -140.5 13.5t-109.5 35.5z" />
<glyph unicode="&#xa8;" horiz-adv-x="874" d="M287 1114l47 264h209l-47 -264h-209zM584 1114l47 264h209l-47 -264h-209z" />
<glyph unicode="&#xa9;" horiz-adv-x="1603" d="M127 682q0 145 50 273t142.5 223.5t221.5 150.5t288 55q160 0 289 -55t221.5 -150.5t142.5 -223.5t50 -273t-50 -273t-142.5 -223.5t-221.5 -150.5t-289 -55t-288.5 55t-221 150.5t-142.5 223.5t-50 273zM264 682q0 -123 37 -229.5t109.5 -185.5t178 -124t240.5 -45 t241 45t178.5 124t109.5 185.5t37 229.5t-37 229.5t-109.5 185.5t-178 124t-241.5 45q-135 0 -240.5 -45t-178 -124t-109.5 -185.5t-37 -229.5zM565 604v162q0 129 65.5 202.5t219.5 73.5q47 0 100.5 -9t89.5 -23l-16 -162q-70 20 -147 20q-55 0 -76 -25.5t-21 -74.5v-166 q0 -49 20.5 -74.5t76.5 -25.5q78 0 147 20l16 -162q-37 -14 -90 -23t-100 -9q-154 0 -219.5 73.5t-65.5 202.5z" />
<glyph unicode="&#xaa;" horiz-adv-x="686" d="M164 862q0 10 1 21.5t3 21.5l51 291q18 106 75.5 149.5t178.5 43.5q61 0 121.5 -17.5t110.5 -46.5l-105 -588h-145l-2 60q-23 -23 -64 -47.5t-88 -24.5q-68 0 -102.5 38t-34.5 99zM354 930q-8 -51 33 -51q27 0 64 16l59 332q-14 8 -45 8q-33 0 -47.5 -11.5t-18.5 -39.5z " />
<glyph unicode="&#xab;" horiz-adv-x="1069" d="M72 541l262 417l217 -135l-195 -291l117 -325l-246 -84zM512 541l262 417l217 -135l-194 -291l116 -325l-245 -84z" />
<glyph unicode="&#xac;" horiz-adv-x="976" d="M150 741v234h761v-543h-262v309h-499z" />
<glyph unicode="&#xad;" horiz-adv-x="612" d="M78 461l41 235h442l-41 -235h-442z" />
<glyph unicode="&#xae;" horiz-adv-x="864" d="M154 1055q0 78 26.5 145.5t74.5 117.5t115.5 78.5t151.5 28.5t152.5 -28.5t117 -78.5t75 -117.5t26.5 -145.5t-26.5 -145.5t-75 -119t-117 -80t-152.5 -28.5t-151.5 28.5t-115.5 80t-74.5 119t-26.5 145.5zM252 1055q0 -53 14.5 -104.5t46 -92.5t82.5 -66.5t127 -25.5 t127 25.5t84 66.5t47.5 92t14.5 105q0 51 -14.5 103t-47.5 92t-84 65.5t-127 25.5t-127 -25.5t-82.5 -65.5t-46 -92t-14.5 -103zM393 893v340h170q96 0 96 -98v-33q0 -63 -45 -84l76 -125h-108l-64 111h-31v-111h-94zM487 1077h54q27 0 26 25v33q0 23 -26 22h-54v-80z" />
<glyph unicode="&#xaf;" horiz-adv-x="854" d="M254 1118l37 205h485l-37 -205h-485z" />
<glyph unicode="&#xb0;" horiz-adv-x="692" d="M180 1073q0 143 82 229.5t236 86.5q111 0 171 -57t60 -161q0 -68 -21.5 -125t-61.5 -99t-98.5 -65.5t-133.5 -23.5q-117 0 -175.5 61.5t-58.5 153.5zM344 1087q0 -43 19.5 -67.5t68.5 -24.5q68 0 101.5 51.5t33.5 114.5q0 41 -22.5 65.5t-71.5 24.5q-63 0 -96 -46 t-33 -118z" />
<glyph unicode="&#xb1;" horiz-adv-x="946" d="M82 0v225h762v-225h-762zM82 627v233h250v268h262v-268h250v-233h-250v-269h-262v269h-250z" />
<glyph unicode="&#xb2;" horiz-adv-x="763" d="M176 836l29 155l227 201q55 49 87 85t42 93l6 35q16 78 -86 78q-45 0 -85 -8.5t-72 -20.5l-13 180q45 18 103.5 30.5t126.5 12.5q125 0 186 -51t61 -145q0 -29 -6 -62l-6 -35q-6 -39 -15 -70.5t-24.5 -61t-39 -57.5t-60.5 -58l-150 -125h240l-33 -176h-518z" />
<glyph unicode="&#xb3;" horiz-adv-x="708" d="M178 850l39 162q76 -27 160 -27q47 0 69.5 16.5t30.5 57.5l6 33q12 76 -69 75h-129l28 162h129q41 0 58.5 19.5t21.5 48.5l6 35q8 41 -14 59t-63 18q-80 0 -138 -18l9 156q37 14 90 22t102 8q266 0 223 -225l-6 -33q-12 -61 -34.5 -100t-92.5 -64q59 -20 74.5 -67 t5.5 -107l-8 -47q-18 -111 -82 -165t-195 -54q-51 0 -112.5 9.5t-108.5 25.5z" />
<glyph unicode="&#xb4;" horiz-adv-x="757" d="M313 1272q70 43 140.5 90t142.5 100l111 -186q-72 -49 -143.5 -91t-149.5 -85z" />
<glyph unicode="&#xb5;" horiz-adv-x="856" d="M-98 -444l252 1431l272 17l-127 -728q-10 -53 37 -53q27 0 60.5 11.5t62.5 27.5l127 725l272 17l-174 -1004h-231l-9 78q-39 -29 -94 -54.5t-104 -35.5l-68 -391z" />
<glyph unicode="&#xb6;" horiz-adv-x="993" d="M133 799q0 276 141.5 420.5t403.5 144.5l-162 -918q-86 0 -155.5 24t-121 68t-79 109.5t-27.5 151.5zM303 -256q45 33 86 64.5t73 65.5t54.5 73t30.5 86l235 1331h242l-231 -1317q-14 -86 -44 -151.5t-76 -120t-107.5 -102.5t-137.5 -97z" />
<glyph unicode="&#xb7;" horiz-adv-x="440" d="M82 494l55 315h271l-56 -315h-270z" />
<glyph unicode="&#xb8;" horiz-adv-x="700" d="M43 -395l31 119q39 -16 82 -17q68 0 67 49q0 35 -55 45l-51 11l63 188h131l-22 -86l24 -4q127 -23 127 -135q0 -92 -62.5 -145.5t-172.5 -53.5q-43 0 -86 8t-76 21z" />
<glyph unicode="&#xb9;" horiz-adv-x="643" d="M236 1475l294 186h168l-145 -821h-213l100 563l-137 -64z" />
<glyph unicode="&#xba;" horiz-adv-x="647" d="M160 899q0 10 1 20.5t3 20.5l41 234q18 104 75.5 159.5t190.5 55.5q98 0 150.5 -46.5t52.5 -123.5q0 -12 -1 -23.5t-3 -21.5l-41 -234q-18 -104 -81 -159.5t-192 -55.5q-98 0 -147 51t-49 123zM342 930q-8 -51 41 -51q53 0 61 51l45 254q8 51 -43 51t-59 -49z" />
<glyph unicode="&#xbb;" horiz-adv-x="1069" d="M82 258l194 291l-116 325l246 84l155 -417l-262 -418zM522 258l195 291l-117 325l246 84l155 -417l-262 -418z" />
<glyph unicode="&#xbc;" horiz-adv-x="1638" d="M217 1178l295 186h168l-145 -821h-213l100 563l-137 -64zM348 -12l770 1427l148 -74l-774 -1431zM834 168l24 137l350 516h254l-88 -499h105l-27 -154h-104l-29 -168h-189l29 168h-325zM1047 322h139l55 307z" />
<glyph unicode="&#xbd;" horiz-adv-x="1687" d="M219 1178l295 186h168l-145 -821h-213l100 563l-137 -64zM350 -12l770 1427l148 -74l-774 -1431zM944 0l29 156l227 200q55 49 87 85t42 94l6 34q16 78 -86 78q-45 0 -85 -8t-72 -21l-13 181q45 18 103.5 30.5t126.5 12.5q125 0 186 -51.5t61 -145.5q0 -29 -6 -61l-6 -35 q-6 -39 -15 -71t-24.5 -61.5t-39 -57t-60.5 -58.5l-150 -125h240l-33 -176h-518z" />
<glyph unicode="&#xbe;" horiz-adv-x="1644" d="M127 557l39 162q76 -27 160 -27q47 0 69.5 16.5t30.5 57.5l6 33q12 76 -70 75h-129l29 162h129q41 0 58.5 19.5t21.5 48.5l6 35q8 41 -14.5 59.5t-63.5 18.5q-80 0 -137 -19l8 156q37 14 90.5 22t102.5 8q266 0 223 -225l-6 -33q-12 -61 -34.5 -100t-92.5 -63 q59 -20 74.5 -67.5t5.5 -107.5l-8 -47q-18 -111 -82 -165t-195 -54q-51 0 -112.5 9.5t-108.5 25.5zM354 -12l770 1427l148 -74l-774 -1431zM840 168l24 137l350 516h254l-88 -499h105l-27 -154h-104l-29 -168h-188l28 168h-325zM1053 322h139l55 307z" />
<glyph unicode="&#xbf;" horiz-adv-x="811" d="M-37 -158q0 20 2 45t6 41l13 72q8 49 20 88t33.5 76t55.5 72.5t83 76.5l266 222l152 -185l-244 -211q-43 -39 -65.5 -67.5t-32.5 -85.5l-10 -56q-2 -10 -2 -17v-13q0 -47 30.5 -64.5t85.5 -17.5q53 0 102.5 8t96.5 29l35 -222q-66 -31 -144.5 -44t-164.5 -13 q-147 0 -232.5 62.5t-85.5 203.5zM356 682l56 315h270l-55 -315h-271z" />
<glyph unicode="&#xc0;" horiz-adv-x="937" d="M-86 0l543 1364h315l72 -1364h-281l2 276h-264l-92 -276h-295zM387 524h180l2 545zM406 1628l145 172q47 -47 100.5 -93t122.5 -105l-131 -154q-63 41 -126.5 88t-110.5 92z" />
<glyph unicode="&#xc1;" horiz-adv-x="937" d="M-86 0l543 1364h315l72 -1364h-281l2 276h-264l-92 -276h-295zM387 524h180l2 545zM508 1620q70 43 131.5 83t136.5 97l111 -186q-72 -49 -138.5 -87t-140.5 -79z" />
<glyph unicode="&#xc2;" horiz-adv-x="937" d="M-86 0l543 1364h315l72 -1364h-281l2 276h-264l-92 -276h-295zM373 1589q76 53 151.5 103.5t155.5 107.5q47 -49 98 -99t129 -124l-129 -129q-47 35 -77.5 60.5t-57.5 50.5q-39 -29 -82 -54.5t-94 -56.5zM387 524h180l2 545z" />
<glyph unicode="&#xc3;" horiz-adv-x="937" d="M-86 0l543 1364h315l72 -1364h-281l2 276h-264l-92 -276h-295zM354 1534q51 98 96 145t125 47q35 0 60.5 -9t54.5 -29q35 -23 47 -32t33 -9q27 0 42 17t36 52l118 -76q-41 -82 -88 -137t-123 -55q-35 0 -62 10.5t-52 26.5q-31 20 -47.5 30.5t-32.5 10.5 q-29 0 -47.5 -20.5t-40.5 -53.5zM387 524h180l2 545z" />
<glyph unicode="&#xc4;" horiz-adv-x="937" d="M-86 0l543 1364h315l72 -1364h-281l2 276h-264l-92 -276h-295zM366 1458l47 264h217l-47 -264h-217zM387 524h180l2 545zM671 1458l48 264h217l-47 -264h-218z" />
<glyph unicode="&#xc5;" horiz-adv-x="937" d="M-86 0l535 1346q-12 27 -13 63q0 98 57.5 154.5t155.5 56.5q78 0 120 -39.5t42 -107.5q0 -41 -10 -71t-29 -59l72 -1343h-281l2 276h-264l-92 -276h-295zM387 524h180l2 545zM557 1417q0 -53 53 -53q37 0 57.5 28.5t20.5 69.5q0 53 -51 54q-39 0 -59.5 -29t-20.5 -70z " />
<glyph unicode="&#xc6;" horiz-adv-x="1257" d="M-86 0l543 1364h880l-43 -246h-510l17 -307h403l-43 -246h-348l16 -319h314l-43 -246h-537l2 276h-264l-92 -276h-295zM387 524h180l2 545z" />
<glyph unicode="&#xc7;" horiz-adv-x="757" d="M20 289q0 29 2.5 48t6.5 48l106 602q18 100 49 175t83 125t128 76t185 26q76 0 145.5 -10.5t124.5 -32.5l-49 -234q-35 12 -82 21.5t-103 9.5q-104 0 -145 -40t-57 -138l-101 -570q-6 -35 -6 -59q0 -59 32 -87t105 -28q53 0 103.5 6t97.5 17v-228q-51 -16 -115.5 -26 t-130.5 -15l-16 -61l25 -4q127 -23 127 -135q0 -92 -62.5 -145.5t-173.5 -53.5q-43 0 -86 8t-76 21l31 119q39 -16 82 -17q68 0 67 49q0 35 -55 45l-51 11l57 174q-133 23 -190.5 104.5t-57.5 198.5z" />
<glyph unicode="&#xc8;" horiz-adv-x="837" d="M0 0l240 1364h678l-44 -246h-395l-55 -307h360l-43 -246h-360l-55 -319h397l-43 -246h-680zM385 1628l145 172q47 -47 100.5 -93t122.5 -105l-131 -154q-63 41 -126.5 88t-110.5 92z" />
<glyph unicode="&#xc9;" horiz-adv-x="837" d="M0 0l240 1364h678l-44 -246h-395l-55 -307h360l-43 -246h-360l-55 -319h397l-43 -246h-680zM426 1620q70 43 131.5 83t136.5 97l111 -186q-72 -49 -138.5 -87t-140.5 -79z" />
<glyph unicode="&#xca;" horiz-adv-x="837" d="M0 0l240 1364h678l-44 -246h-395l-55 -307h360l-43 -246h-360l-55 -319h397l-43 -246h-680zM361 1589q76 53 151.5 103.5t155.5 107.5q47 -49 98 -99t129 -124l-129 -129q-47 35 -77.5 60.5t-57.5 50.5q-39 -29 -82 -54.5t-94 -56.5z" />
<glyph unicode="&#xcb;" horiz-adv-x="837" d="M0 0l240 1364h678l-44 -246h-395l-55 -307h360l-43 -246h-360l-55 -319h397l-43 -246h-680zM346 1458l47 264h217l-47 -264h-217zM651 1458l48 264h217l-47 -264h-218z" />
<glyph unicode="&#xcc;" horiz-adv-x="479" d="M6 0l240 1364h282l-239 -1364h-283zM191 1628l145 172q47 -47 100.5 -93t122.5 -105l-131 -154q-63 41 -126.5 88t-110.5 92z" />
<glyph unicode="&#xcd;" horiz-adv-x="479" d="M6 0l240 1364h282l-239 -1364h-283zM289 1620q70 43 131.5 83t136.5 97l111 -186q-72 -49 -138.5 -87t-140.5 -79z" />
<glyph unicode="&#xce;" horiz-adv-x="479" d="M6 0l240 1364h282l-239 -1364h-283zM164 1589q76 53 151.5 103.5t155.5 107.5q47 -49 98 -99t129 -124l-129 -129q-47 35 -77.5 60.5t-57.5 50.5q-39 -29 -82 -54.5t-94 -56.5z" />
<glyph unicode="&#xcf;" horiz-adv-x="479" d="M6 0l240 1364h282l-239 -1364h-283zM145 1458l47 264h217l-47 -264h-217zM450 1458l48 264h217l-47 -264h-218z" />
<glyph unicode="&#xd0;" horiz-adv-x="1013" d="M39 0l98 565h-82l41 236h82l101 563h426q172 0 250.5 -65.5t78.5 -213.5q0 -39 -3 -68.5t-9 -66.5l-98 -555q-18 -109 -53 -183.5t-90.5 -121.5t-133.5 -68.5t-182 -21.5h-426zM365 246h114q82 0 115 39t49 123l98 555q6 37 7 63q0 49 -25 70.5t-88 21.5h-117l-57 -317 h131l-41 -236h-131z" />
<glyph unicode="&#xd1;" horiz-adv-x="1067" d="M0 0l240 1364h274l199 -778l137 778h272l-239 -1364h-277l-196 778l-138 -778h-272zM385 1534q51 98 96 145t125 47q35 0 60.5 -9t54.5 -29q35 -23 47 -32t33 -9q27 0 42 17t36 52l118 -76q-41 -82 -88 -137t-123 -55q-35 0 -62 10.5t-52 26.5q-31 20 -47.5 30.5 t-32.5 10.5q-29 0 -47.5 -20.5t-40.5 -53.5z" />
<glyph unicode="&#xd2;" horiz-adv-x="970" d="M37 289q0 27 3 52.5t7 53.5l100 570q18 104 50 183t88.5 133t140.5 81t207 27q98 0 165.5 -24t110.5 -64.5t61.5 -98t18.5 -125.5q0 -29 -3 -56.5t-7 -55.5l-100 -570q-16 -96 -47 -174t-87.5 -132t-142.5 -84t-211 -30q-96 0 -163.5 24t-109.5 64.5t-61.5 99 t-19.5 126.5zM317 315q0 -45 25 -69.5t90 -24.5q80 0 114 39t46 111l110 626q6 31 7 56q0 45 -25 67.5t-90 22.5q-84 0 -116 -37t-44 -109l-110 -626q-6 -35 -7 -56zM428 1628l145 172q47 -47 100.5 -93t122.5 -105l-131 -154q-63 41 -126.5 88t-110.5 92z" />
<glyph unicode="&#xd3;" horiz-adv-x="970" d="M37 289q0 27 3 52.5t7 53.5l100 570q18 104 50 183t88.5 133t140.5 81t207 27q98 0 165.5 -24t110.5 -64.5t61.5 -98t18.5 -125.5q0 -29 -3 -56.5t-7 -55.5l-100 -570q-16 -96 -47 -174t-87.5 -132t-142.5 -84t-211 -30q-96 0 -163.5 24t-109.5 64.5t-61.5 99 t-19.5 126.5zM317 315q0 -45 25 -69.5t90 -24.5q80 0 114 39t46 111l110 626q6 31 7 56q0 45 -25 67.5t-90 22.5q-84 0 -116 -37t-44 -109l-110 -626q-6 -35 -7 -56zM498 1620q70 43 131.5 83t136.5 97l111 -186q-72 -49 -138.5 -87t-140.5 -79z" />
<glyph unicode="&#xd4;" horiz-adv-x="970" d="M37 289q0 27 3 52.5t7 53.5l100 570q18 104 50 183t88.5 133t140.5 81t207 27q98 0 165.5 -24t110.5 -64.5t61.5 -98t18.5 -125.5q0 -29 -3 -56.5t-7 -55.5l-100 -570q-16 -96 -47 -174t-87.5 -132t-142.5 -84t-211 -30q-96 0 -163.5 24t-109.5 64.5t-61.5 99 t-19.5 126.5zM317 315q0 -45 25 -69.5t90 -24.5q80 0 114 39t46 111l110 626q6 31 7 56q0 45 -25 67.5t-90 22.5q-84 0 -116 -37t-44 -109l-110 -626q-6 -35 -7 -56zM391 1589q76 53 151.5 103.5t155.5 107.5q47 -49 98 -99t129 -124l-129 -129q-47 35 -77.5 60.5 t-57.5 50.5q-39 -29 -82 -54.5t-94 -56.5z" />
<glyph unicode="&#xd5;" horiz-adv-x="970" d="M37 289q0 27 3 52.5t7 53.5l100 570q18 104 50 183t88.5 133t140.5 81t207 27q98 0 165.5 -24t110.5 -64.5t61.5 -98t18.5 -125.5q0 -29 -3 -56.5t-7 -55.5l-100 -570q-16 -96 -47 -174t-87.5 -132t-142.5 -84t-211 -30q-96 0 -163.5 24t-109.5 64.5t-61.5 99 t-19.5 126.5zM317 315q0 -45 25 -69.5t90 -24.5q80 0 114 39t46 111l110 626q6 31 7 56q0 45 -25 67.5t-90 22.5q-84 0 -116 -37t-44 -109l-110 -626q-6 -35 -7 -56zM365 1534q51 98 96 145t125 47q35 0 60.5 -9t54.5 -29q35 -23 47 -32t33 -9q27 0 42 17t36 52l118 -76 q-41 -82 -88 -137t-123 -55q-35 0 -62 10.5t-52 26.5q-31 20 -47.5 30.5t-32.5 10.5q-29 0 -47.5 -20.5t-40.5 -53.5z" />
<glyph unicode="&#xd6;" horiz-adv-x="970" d="M37 289q0 27 3 52.5t7 53.5l100 570q18 104 50 183t88.5 133t140.5 81t207 27q98 0 165.5 -24t110.5 -64.5t61.5 -98t18.5 -125.5q0 -29 -3 -56.5t-7 -55.5l-100 -570q-16 -96 -47 -174t-87.5 -132t-142.5 -84t-211 -30q-96 0 -163.5 24t-109.5 64.5t-61.5 99 t-19.5 126.5zM317 315q0 -45 25 -69.5t90 -24.5q80 0 114 39t46 111l110 626q6 31 7 56q0 45 -25 67.5t-90 22.5q-84 0 -116 -37t-44 -109l-110 -626q-6 -35 -7 -56zM385 1458l47 264h217l-47 -264h-217zM690 1458l48 264h217l-47 -264h-218z" />
<glyph unicode="&#xd7;" horiz-adv-x="958" d="M135 487l215 215l-215 216l166 165l215 -215l215 215l166 -165l-215 -216l215 -215l-166 -165l-215 215l-215 -215z" />
<glyph unicode="&#xd8;" horiz-adv-x="974" d="M-29 -61l111 172q-43 74 -43 178q0 27 3 52.5t7 53.5l101 570q18 104 49.5 183t88 133t140.5 81t207 27q76 0 134 -14.5t99 -41.5l97 152l94 -60l-111 -172q43 -74 43 -176q0 -29 -3 -56.5t-7 -55.5l-100 -570q-16 -96 -47 -174t-87.5 -132t-142.5 -84t-211 -30 q-76 0 -133 14.5t-98 39.5l-99 -154zM324 281q8 -29 33.5 -44.5t76.5 -15.5q80 0 114 39t46 111l80 454zM354 535l353 548q-8 29 -33 44.5t-78 15.5q-84 0 -115.5 -37t-44.5 -109z" />
<glyph unicode="&#xd9;" horiz-adv-x="989" d="M47 291q0 20 2 40.5t6 39.5l176 993h283l-178 -1004q-2 -10 -3 -21t-1 -24q0 -43 24.5 -68.5t85.5 -25.5q78 0 111 34t43 93l178 1016h283l-178 -1004q-16 -90 -49 -161.5t-90.5 -120.5t-141.5 -76t-201 -27q-168 0 -259 87.5t-91 228.5zM449 1628l145 172 q47 -47 100.5 -93t122.5 -105l-131 -154q-63 41 -126.5 88t-110.5 92z" />
<glyph unicode="&#xda;" horiz-adv-x="989" d="M47 291q0 20 2 40.5t6 39.5l176 993h283l-178 -1004q-2 -10 -3 -21t-1 -24q0 -43 24.5 -68.5t85.5 -25.5q78 0 111 34t43 93l178 1016h283l-178 -1004q-16 -90 -49 -161.5t-90.5 -120.5t-141.5 -76t-201 -27q-168 0 -259 87.5t-91 228.5zM518 1620q70 43 131.5 83 t136.5 97l111 -186q-72 -49 -138.5 -87t-140.5 -79z" />
<glyph unicode="&#xdb;" horiz-adv-x="989" d="M47 291q0 20 2 40.5t6 39.5l176 993h283l-178 -1004q-2 -10 -3 -21t-1 -24q0 -43 24.5 -68.5t85.5 -25.5q78 0 111 34t43 93l178 1016h283l-178 -1004q-16 -90 -49 -161.5t-90.5 -120.5t-141.5 -76t-201 -27q-168 0 -259 87.5t-91 228.5zM418 1589q76 53 151.5 103.5 t155.5 107.5q47 -49 98 -99t129 -124l-129 -129q-47 35 -77.5 60.5t-57.5 50.5q-39 -29 -82 -54.5t-94 -56.5z" />
<glyph unicode="&#xdc;" horiz-adv-x="989" d="M47 291q0 20 2 40.5t6 39.5l176 993h283l-178 -1004q-2 -10 -3 -21t-1 -24q0 -43 24.5 -68.5t85.5 -25.5q78 0 111 34t43 93l178 1016h283l-178 -1004q-16 -90 -49 -161.5t-90.5 -120.5t-141.5 -76t-201 -27q-168 0 -259 87.5t-91 228.5zM407 1458l47 264h217l-47 -264 h-217zM712 1458l48 264h217l-47 -264h-218z" />
<glyph unicode="&#xdd;" horiz-adv-x="866" d="M131 1364h307l47 -563l217 563h328l-459 -872l-86 -492h-282l88 502zM430 1620q70 43 131.5 83t136.5 97l111 -186q-72 -49 -138.5 -87t-140.5 -79z" />
<glyph unicode="&#xde;" horiz-adv-x="919" d="M0 0l240 1364h282l-41 -229h152q317 0 317 -254q0 -23 -3 -47.5t-7 -53.5l-31 -174q-14 -80 -43.5 -143.5t-80 -107.5t-124 -67.5t-176.5 -23.5h-157l-45 -264h-283zM371 506h127q63 0 90.5 26.5t38.5 85.5l30 175q2 10 3.5 18t1.5 14q0 41 -25 54.5t-72 13.5h-127z" />
<glyph unicode="&#xdf;" horiz-adv-x="976" d="M-133 -283q47 59 81 125t50 158l186 1063q16 92 49 157.5t86.5 107.5t129 60.5t176.5 18.5q154 0 236.5 -70.5t82.5 -189.5q0 -92 -30.5 -160.5t-84.5 -152.5q-29 -45 -55 -84t-26 -68t17 -51.5t50 -61.5q29 -35 48.5 -61.5t30.5 -52t16 -52t5 -63.5q0 -68 -20.5 -131.5 t-62 -111.5t-107.5 -77.5t-154 -29.5q-55 0 -100 9t-94 26l45 204q31 -14 64.5 -19t68.5 -5q94 0 94 82q0 23 -12 37t-41 43q-37 39 -62.5 69.5t-41 57t-21.5 51t-6 55.5q0 45 9 82t24.5 68.5t35 61.5t37.5 65q35 57 67 114.5t32 122.5q0 80 -86 80q-49 0 -83 -28.5 t-44 -90.5l-189 -1075q-25 -141 -69.5 -239.5t-139.5 -184.5z" />
<glyph unicode="&#xe0;" d="M12 203q0 51 8 86l78 442q27 158 115 222.5t248 64.5q113 0 216 -32t167 -66l-162 -920h-223l-2 104q-37 -43 -102.5 -83.5t-145.5 -40.5q-55 0 -93 18t-60.5 49t-33 71t-10.5 85zM291 276q0 -55 49 -55q35 0 64.5 17.5t54.5 35.5l88 508q-12 4 -37 9.5t-47 5.5 q-47 0 -67.5 -18.5t-30.5 -69.5l-70 -396q-2 -10 -3 -19t-1 -18zM331 1290l160 172q55 -59 105.5 -108t109.5 -101l-131 -153q-63 41 -129.5 93t-114.5 97z" />
<glyph unicode="&#xe1;" d="M12 203q0 51 8 86l78 442q27 158 115 222.5t248 64.5q113 0 216 -32t167 -66l-162 -920h-223l-2 104q-37 -43 -102.5 -83.5t-145.5 -40.5q-55 0 -93 18t-60.5 49t-33 71t-10.5 85zM291 276q0 -55 49 -55q35 0 64.5 17.5t54.5 35.5l88 508q-12 4 -37 9.5t-47 5.5 q-47 0 -67.5 -18.5t-30.5 -69.5l-70 -396q-2 -10 -3 -19t-1 -18zM376 1272q70 43 140.5 90t142.5 100l111 -186q-72 -49 -143.5 -91t-149.5 -85z" />
<glyph unicode="&#xe2;" d="M12 203q0 51 8 86l78 442q27 158 115 222.5t248 64.5q113 0 216 -32t167 -66l-162 -920h-223l-2 104q-37 -43 -102.5 -83.5t-145.5 -40.5q-55 0 -93 18t-60.5 49t-33 71t-10.5 85zM291 276q0 -55 49 -55q35 0 64.5 17.5t54.5 35.5l88 508q-12 4 -37 9.5t-47 5.5 q-47 0 -67.5 -18.5t-30.5 -69.5l-70 -396q-2 -10 -3 -19t-1 -18zM297 1241q72 53 147.5 107.5t155.5 113.5q47 -53 101 -110.5t120 -122.5l-129 -129q-39 33 -70 62.5t-59 58.5q-39 -31 -83 -62t-89 -59z" />
<glyph unicode="&#xe3;" d="M12 203q0 51 8 86l78 442q27 158 115 222.5t248 64.5q113 0 216 -32t167 -66l-162 -920h-223l-2 104q-37 -43 -102.5 -83.5t-145.5 -40.5q-55 0 -93 18t-60.5 49t-33 71t-10.5 85zM258 1186q51 98 96.5 145t125.5 47q35 0 60.5 -9t53.5 -30q35 -23 47.5 -32t32.5 -9 q27 0 42.5 17.5t35.5 52.5l119 -76q-41 -82 -88 -137t-123 -55q-35 0 -62.5 10.5t-52.5 26.5q-31 20 -47 30.5t-33 10.5q-29 0 -47 -20.5t-41 -53.5zM291 276q0 -55 49 -55q35 0 64.5 17.5t54.5 35.5l88 508q-12 4 -37 9.5t-47 5.5q-47 0 -67.5 -18.5t-30.5 -69.5l-70 -396 q-2 -10 -3 -19t-1 -18z" />
<glyph unicode="&#xe4;" d="M12 203q0 51 8 86l78 442q27 158 115 222.5t248 64.5q113 0 216 -32t167 -66l-162 -920h-223l-2 104q-37 -43 -102.5 -83.5t-145.5 -40.5q-55 0 -93 18t-60.5 49t-33 71t-10.5 85zM291 276q0 -55 49 -55q35 0 64.5 17.5t54.5 35.5l88 508q-12 4 -37 9.5t-47 5.5 q-47 0 -67.5 -18.5t-30.5 -69.5l-70 -396q-2 -10 -3 -19t-1 -18zM295 1114l47 264h209l-47 -264h-209zM592 1114l47 264h209l-47 -264h-209z" />
<glyph unicode="&#xe5;" d="M12 203q0 51 8 86l78 442q27 158 115 222.5t248 64.5q113 0 216 -32t167 -66l-162 -920h-223l-2 104q-37 -43 -102.5 -83.5t-145.5 -40.5q-55 0 -93 18t-60.5 49t-33 71t-10.5 85zM291 276q0 -55 49 -55q35 0 64.5 17.5t54.5 35.5l88 508q-12 4 -37 9.5t-47 5.5 q-47 0 -67.5 -18.5t-30.5 -69.5l-70 -396q-2 -10 -3 -19t-1 -18zM383 1249q0 98 57 154.5t156 56.5q78 0 119.5 -39.5t41.5 -107.5q0 -88 -55 -150.5t-160 -62.5q-70 0 -114.5 42t-44.5 107zM503 1257q1 -53 54 -53q37 0 57 29t20 70q0 53 -51 53q-39 0 -59.5 -29t-20.5 -70 z" />
<glyph unicode="&#xe6;" horiz-adv-x="1171" d="M-20 227q0 193 82.5 275t242.5 82h176l15 80q2 10 2 16v10q0 43 -27 68.5t-84 25.5q-66 0 -122 -10t-115 -33l-29 213q59 29 139 46.5t172 17.5q86 0 139.5 -17.5t92.5 -58.5q47 41 106 58.5t131 17.5q129 0 201 -64.5t72 -195.5q0 -68 -16.5 -123t-57.5 -101.5t-110 -81 t-173 -59.5q-41 -10 -58.5 -13t-43.5 -7l-17 -94q-2 -10 -3 -17.5t-1 -13.5q0 -45 58 -45q68 0 140.5 27.5t129.5 62.5l68 -193q-82 -49 -185.5 -84.5t-210.5 -35.5q-150 0 -215 83q-109 -84 -270 -83q-55 0 -97 19t-72 53t-45 79t-15 96zM256 266q0 -71 68 -71q27 0 57.5 7 t52.5 17q-4 27 0 55.5t8 51.5l9 47h-107q-47 0 -67.5 -28t-20.5 -79zM754 592q23 4 38.5 8t38.5 10q96 29 97 119q0 33 -17.5 52.5t-52.5 19.5q-41 0 -58.5 -24.5t-25.5 -65.5z" />
<glyph unicode="&#xe7;" horiz-adv-x="634" d="M12 225q0 20 2 43t6 45l68 383q29 166 120 244t253 78q61 0 124.5 -11.5t106.5 -31.5l-47 -217q-33 10 -78 18t-84 8q-59 0 -90 -24.5t-41 -85.5l-67 -383q-6 -35 7 -56.5t50 -21.5q51 0 102.5 11.5t92.5 27.5l16 -215q-35 -18 -98.5 -34.5t-130.5 -20.5l-17 -68l25 -4 q127 -23 127 -135q0 -92 -62.5 -145.5t-173.5 -53.5q-43 0 -86 8t-76 21l31 119q39 -16 82 -17q68 0 68 49q0 35 -56 45l-51 11l60 176q-98 20 -140.5 81.5t-42.5 155.5z" />
<glyph unicode="&#xe8;" horiz-adv-x="741" d="M8 231q0 23 2 44.5t6 50.5l62 348q33 180 130 262t257 82q59 0 111.5 -16.5t91.5 -48t61.5 -78t22.5 -107.5q0 -131 -77 -215t-226 -137l-156 -56l-17 -94q-6 -35 9.5 -49t46.5 -14q57 0 131 27.5t143 64.5l51 -201q-82 -51 -184 -82.5t-201 -31.5q-137 0 -200.5 67.5 t-63.5 183.5zM231 1290l160 172q55 -59 105.5 -108t109.5 -101l-131 -153q-63 41 -129.5 93t-114.5 97zM334 590l59 20q66 23 89.5 55.5t23.5 73.5q0 63 -66 64q-41 0 -59.5 -24.5t-26.5 -67.5z" />
<glyph unicode="&#xe9;" horiz-adv-x="741" d="M8 231q0 23 2 44.5t6 50.5l62 348q33 180 130 262t257 82q59 0 111.5 -16.5t91.5 -48t61.5 -78t22.5 -107.5q0 -131 -77 -215t-226 -137l-156 -56l-17 -94q-6 -35 9.5 -49t46.5 -14q57 0 131 27.5t143 64.5l51 -201q-82 -51 -184 -82.5t-201 -31.5q-137 0 -200.5 67.5 t-63.5 183.5zM334 590l59 20q66 23 89.5 55.5t23.5 73.5q0 63 -66 64q-41 0 -59.5 -24.5t-26.5 -67.5zM352 1272q70 43 140.5 90t142.5 100l111 -186q-72 -49 -143.5 -91t-149.5 -85z" />
<glyph unicode="&#xea;" horiz-adv-x="741" d="M8 231q0 23 2 44.5t6 50.5l62 348q33 180 130 262t257 82q59 0 111.5 -16.5t91.5 -48t61.5 -78t22.5 -107.5q0 -131 -77 -215t-226 -137l-156 -56l-17 -94q-6 -35 9.5 -49t46.5 -14q57 0 131 27.5t143 64.5l51 -201q-82 -51 -184 -82.5t-201 -31.5q-137 0 -200.5 67.5 t-63.5 183.5zM240 1241q72 53 147.5 107.5t155.5 113.5q47 -53 101 -110.5t120 -122.5l-129 -129q-39 33 -70 62.5t-59 58.5q-39 -31 -83 -62t-89 -59zM334 590l59 20q66 23 89.5 55.5t23.5 73.5q0 63 -66 64q-41 0 -59.5 -24.5t-26.5 -67.5z" />
<glyph unicode="&#xeb;" horiz-adv-x="741" d="M8 231q0 23 2 44.5t6 50.5l62 348q33 180 130 262t257 82q59 0 111.5 -16.5t91.5 -48t61.5 -78t22.5 -107.5q0 -131 -77 -215t-226 -137l-156 -56l-17 -94q-6 -35 9.5 -49t46.5 -14q57 0 131 27.5t143 64.5l51 -201q-82 -51 -184 -82.5t-201 -31.5q-137 0 -200.5 67.5 t-63.5 183.5zM236 1114l47 264h209l-47 -264h-209zM334 590l59 20q66 23 89.5 55.5t23.5 73.5q0 63 -66 64q-41 0 -59.5 -24.5t-26.5 -67.5zM533 1114l47 264h209l-47 -264h-209z" />
<glyph unicode="&#xec;" horiz-adv-x="436" d="M-8 0l170 975l278 41l-178 -1016h-270zM98 1290l160 172q55 -59 105.5 -108t109.5 -101l-131 -153q-63 41 -129.5 93t-114.5 97z" />
<glyph unicode="&#xed;" horiz-adv-x="436" d="M-8 0l170 975l278 41l-178 -1016h-270zM184 1272q70 43 140.5 90t142.5 100l111 -186q-72 -49 -143.5 -91t-149.5 -85z" />
<glyph unicode="&#xee;" horiz-adv-x="436" d="M-8 0l170 975l278 41l-178 -1016h-270zM89 1241q72 53 147.5 107.5t155.5 113.5q47 -53 101 -110.5t120 -122.5l-129 -129q-39 33 -70 62.5t-59 58.5q-39 -31 -83 -62t-89 -59z" />
<glyph unicode="&#xef;" horiz-adv-x="436" d="M-8 0l170 975l278 41l-178 -1016h-270zM80 1114l47 264h209l-47 -264h-209zM377 1114l47 264h209l-47 -264h-209z" />
<glyph unicode="&#xf0;" horiz-adv-x="888" d="M31 260q0 23 1 39t5 37l47 270q29 156 109.5 229.5t224.5 73.5q61 0 107 -13t85 -36q2 16 3 33.5t1 28.5q0 119 -57 174l-227 -109l-41 98l172 86q-47 23 -99.5 35.5t-111.5 20.5l69 219q123 -10 235 -45t181 -94l183 88l43 -101l-152 -75q33 -37 53.5 -109t20.5 -164 q0 -29 -3 -62.5t-8 -62.5l-84 -483q-14 -80 -45.5 -146.5t-85 -114.5t-129 -75t-178.5 -27q-154 0 -236.5 78t-82.5 207zM299 279q0 -78 86 -78q61 0 89 29.5t38 82.5l61 344q-41 25 -116 25q-51 0 -73 -20.5t-32 -69.5l-49 -277q-2 -10 -3 -19t-1 -17z" />
<glyph unicode="&#xf1;" horiz-adv-x="864" d="M-10 0l170 973l233 43l10 -96q51 37 124 67.5t145 30.5q174 0 174 -160q0 -16 -1 -31.5t-3 -25.5l-142 -801h-270l125 709q8 55 -37 55q-27 0 -64.5 -12.5t-66.5 -28.5l-127 -723h-270zM251 1186q51 98 96.5 145t125.5 47q35 0 60.5 -9t53.5 -30q35 -23 47.5 -32t32.5 -9 q27 0 42.5 17.5t35.5 52.5l119 -76q-41 -82 -88 -137t-123 -55q-35 0 -62.5 10.5t-52.5 26.5q-31 20 -47 30.5t-33 10.5q-29 0 -47 -20.5t-41 -53.5z" />
<glyph unicode="&#xf2;" d="M16 285q0 41 7 75l53 304q31 174 121 264t274 90q70 0 134.5 -16.5t113.5 -51.5t77.5 -89t28.5 -128q0 -33 -6 -69l-55 -316q-14 -84 -42 -151.5t-74 -115.5t-117 -74.5t-171 -26.5q-72 0 -135 19t-109 58t-73 96.5t-27 131.5zM285 315q-8 -45 13 -77.5t75 -32.5 q53 0 78.5 26.5t33.5 71.5l68 381q10 49 -10.5 79t-73.5 30t-80 -21.5t-37 -75.5zM311 1290l160 172q55 -59 105.5 -108t109.5 -101l-131 -153q-63 41 -129.5 93t-114.5 97z" />
<glyph unicode="&#xf3;" d="M16 285q0 41 7 75l53 304q31 174 121 264t274 90q70 0 134.5 -16.5t113.5 -51.5t77.5 -89t28.5 -128q0 -33 -6 -69l-55 -316q-14 -84 -42 -151.5t-74 -115.5t-117 -74.5t-171 -26.5q-72 0 -135 19t-109 58t-73 96.5t-27 131.5zM285 315q-8 -45 13 -77.5t75 -32.5 q53 0 78.5 26.5t33.5 71.5l68 381q10 49 -10.5 79t-73.5 30t-80 -21.5t-37 -75.5zM393 1272q70 43 140.5 90t142.5 100l111 -186q-72 -49 -143.5 -91t-149.5 -85z" />
<glyph unicode="&#xf4;" d="M16 285q0 41 7 75l53 304q31 174 121 264t274 90q70 0 134.5 -16.5t113.5 -51.5t77.5 -89t28.5 -128q0 -33 -6 -69l-55 -316q-14 -84 -42 -151.5t-74 -115.5t-117 -74.5t-171 -26.5q-72 0 -135 19t-109 58t-73 96.5t-27 131.5zM279 1241q72 53 147.5 107.5t155.5 113.5 q47 -53 101 -110.5t120 -122.5l-129 -129q-39 33 -70 62.5t-59 58.5q-39 -31 -83 -62t-89 -59zM285 315q-8 -45 13 -77.5t75 -32.5q53 0 78.5 26.5t33.5 71.5l68 381q10 49 -10.5 79t-73.5 30t-80 -21.5t-37 -75.5z" />
<glyph unicode="&#xf5;" d="M16 285q0 41 7 75l53 304q31 174 121 264t274 90q70 0 134.5 -16.5t113.5 -51.5t77.5 -89t28.5 -128q0 -33 -6 -69l-55 -316q-14 -84 -42 -151.5t-74 -115.5t-117 -74.5t-171 -26.5q-72 0 -135 19t-109 58t-73 96.5t-27 131.5zM256 1186q51 98 96.5 145t125.5 47 q35 0 60.5 -9t53.5 -30q35 -23 47.5 -32t32.5 -9q27 0 42.5 17.5t35.5 52.5l119 -76q-41 -82 -88 -137t-123 -55q-35 0 -62.5 10.5t-52.5 26.5q-31 20 -47 30.5t-33 10.5q-29 0 -47 -20.5t-41 -53.5zM285 315q-8 -45 13 -77.5t75 -32.5q53 0 78.5 26.5t33.5 71.5l68 381 q10 49 -10.5 79t-73.5 30t-80 -21.5t-37 -75.5z" />
<glyph unicode="&#xf6;" d="M16 285q0 41 7 75l53 304q31 174 121 264t274 90q70 0 134.5 -16.5t113.5 -51.5t77.5 -89t28.5 -128q0 -33 -6 -69l-55 -316q-14 -84 -42 -151.5t-74 -115.5t-117 -74.5t-171 -26.5q-72 0 -135 19t-109 58t-73 96.5t-27 131.5zM281 1114l47 264h209l-47 -264h-209z M285 315q-8 -45 13 -77.5t75 -32.5q53 0 78.5 26.5t33.5 71.5l68 381q10 49 -10.5 79t-73.5 30t-80 -21.5t-37 -75.5zM578 1114l47 264h209l-47 -264h-209z" />
<glyph unicode="&#xf7;" horiz-adv-x="1007" d="M143 586v233h762v-233h-762zM393 219v260h262v-260h-262zM393 926v260h262v-260h-262z" />
<glyph unicode="&#xf8;" horiz-adv-x="849" d="M-45 -47l108 145q-29 41 -39 82t-10 92q0 14 2 38t7 40l55 314q16 92 47 158.5t81 109.5t122.5 64.5t175.5 21.5q66 0 118 -14.5t93 -38.5l100 133l72 -58l-107 -141q27 -33 37 -73t10 -87q0 -23 -1 -39t-5 -36l-55 -316q-16 -88 -44 -156.5t-77 -115.5t-122.5 -71.5 t-182.5 -24.5q-127 0 -209 55l-104 -139zM293 250q18 -37 78 -37q55 0 82.5 26.5t35.5 73.5l46 258zM305 420l244 323q-18 41 -80 41q-53 0 -80 -22.5t-37 -75.5z" />
<glyph unicode="&#xf9;" horiz-adv-x="856" d="M10 154q0 16 1 27.5t5 27.5l138 778l272 17l-125 -717q-8 -57 37 -58q27 0 61.5 11.5t59.5 25.5l127 721l272 17l-176 -1004h-229l-9 78q-57 -39 -127.5 -68.5t-136.5 -29.5q-86 0 -128 49t-42 125zM317 1290l160 172q55 -59 105.5 -108t109.5 -101l-131 -153 q-63 41 -129.5 93t-114.5 97z" />
<glyph unicode="&#xfa;" horiz-adv-x="856" d="M10 154q0 16 1 27.5t5 27.5l138 778l272 17l-125 -717q-8 -57 37 -58q27 0 61.5 11.5t59.5 25.5l127 721l272 17l-176 -1004h-229l-9 78q-57 -39 -127.5 -68.5t-136.5 -29.5q-86 0 -128 49t-42 125zM383 1272q70 43 140.5 90t142.5 100l111 -186q-72 -49 -143.5 -91 t-149.5 -85z" />
<glyph unicode="&#xfb;" horiz-adv-x="856" d="M10 154q0 16 1 27.5t5 27.5l138 778l272 17l-125 -717q-8 -57 37 -58q27 0 61.5 11.5t59.5 25.5l127 721l272 17l-176 -1004h-229l-9 78q-57 -39 -127.5 -68.5t-136.5 -29.5q-86 0 -128 49t-42 125zM285 1241q72 53 147.5 107.5t155.5 113.5q47 -53 101 -110.5 t120 -122.5l-129 -129q-39 33 -70 62.5t-59 58.5q-39 -31 -83 -62t-89 -59z" />
<glyph unicode="&#xfc;" horiz-adv-x="856" d="M10 154q0 16 1 27.5t5 27.5l138 778l272 17l-125 -717q-8 -57 37 -58q27 0 61.5 11.5t59.5 25.5l127 721l272 17l-176 -1004h-229l-9 78q-57 -39 -127.5 -68.5t-136.5 -29.5q-86 0 -128 49t-42 125zM287 1114l47 264h209l-47 -264h-209zM584 1114l47 264h209l-47 -264 h-209z" />
<glyph unicode="&#xfd;" horiz-adv-x="774" d="M2 -244q82 37 141.5 91.5t100.5 152.5h-70l-104 967l272 41l47 -738l127 445q12 45 19.5 83t7.5 74q0 31 -2 51.5t-6 51.5l266 41q8 -35 13 -69t5 -70q0 -74 -41 -185l-258 -667q-33 -84 -66.5 -153t-79.5 -125t-110.5 -103t-157.5 -88zM305 1272q70 43 140.5 90 t142.5 100l111 -186q-72 -49 -143.5 -91t-149.5 -85z" />
<glyph unicode="&#xfe;" horiz-adv-x="882" d="M-88 -444l326 1849l276 41l-86 -502q47 31 103.5 52.5t117.5 21.5q111 0 161 -54.5t50 -158.5q0 -23 -3 -46.5t-7 -49.5l-76 -430q-29 -166 -106.5 -232.5t-212.5 -66.5q-53 0 -100.5 12t-88.5 28l-76 -423zM303 229q49 -16 98 -16q57 0 78 20.5t29 65.5l70 397 q8 41 -3.5 62.5t-52.5 21.5q-35 0 -68.5 -13t-60.5 -30z" />
<glyph unicode="&#xff;" horiz-adv-x="774" d="M2 -244q82 37 141.5 91.5t100.5 152.5h-70l-104 967l272 41l47 -738l127 445q12 45 19.5 83t7.5 74q0 31 -2 51.5t-6 51.5l266 41q8 -35 13 -69t5 -70q0 -74 -41 -185l-258 -667q-33 -84 -66.5 -153t-79.5 -125t-110.5 -103t-157.5 -88zM221 1114l47 264h209l-47 -264 h-209zM518 1114l47 264h209l-47 -264h-209z" />
<glyph unicode="&#x152;" horiz-adv-x="1429" d="M37 313q0 27 3 52.5t7 54.5l92 520q18 106 51 186t88.5 132.5t139.5 79t207 26.5h884l-43 -246h-407l-55 -307h372l-43 -246h-372l-56 -319h410l-43 -246h-881q-96 0 -163.5 23.5t-109.5 64.5t-61.5 99.5t-19.5 125.5zM317 340q0 -45 25 -69.5t90 -24.5h191l153 872h-192 q-82 -2 -114 -39t-44 -106l-102 -578q-6 -35 -7 -55z" />
<glyph unicode="&#x153;" horiz-adv-x="1224" d="M12 272q0 14 2 38t6 40l56 314q35 190 128 272t267 82q78 0 137.5 -23.5t104.5 -66.5q45 39 104.5 64.5t145.5 25.5q129 0 195.5 -68.5t66.5 -185.5q0 -131 -76.5 -212t-230.5 -138q-47 -18 -82 -29.5t-70 -24.5l-16 -94q-6 -35 9 -49t46 -14q63 0 132 25.5t126 58.5 l67 -193q-86 -53 -175 -83.5t-193 -30.5q-66 0 -114 23.5t-73 59.5q-57 -41 -115.5 -62t-129.5 -21q-160 0 -239 78.5t-79 213.5zM283 289q0 -76 86 -76q55 0 82.5 26.5t35.5 73.5l62 353q2 10 3 20t1 21q0 78 -86 77q-53 0 -80 -22.5t-37 -75.5l-65 -373q-2 -10 -2 -15v-9z M807 594l59 18q51 16 83 43t32 76q0 70 -70 70q-41 0 -58 -24.5t-26 -65.5z" />
<glyph unicode="&#x178;" horiz-adv-x="866" d="M131 1364h307l47 -563l217 563h328l-459 -872l-86 -492h-282l88 502zM321 1458l47 264h217l-47 -264h-217zM626 1458l48 264h217l-47 -264h-218z" />
<glyph unicode="&#x2c6;" horiz-adv-x="892" d="M279 1241q72 53 147.5 107.5t155.5 113.5q47 -53 101 -110.5t120 -122.5l-129 -129q-39 33 -70 62.5t-59 58.5q-39 -31 -83 -62t-89 -59z" />
<glyph unicode="&#x2dc;" horiz-adv-x="962" d="M274 1186q51 98 96.5 145t125.5 47q35 0 60.5 -9t53.5 -30q35 -23 47.5 -32t32.5 -9q27 0 42.5 17.5t35.5 52.5l119 -76q-41 -82 -88 -137t-123 -55q-35 0 -62.5 10.5t-52.5 26.5q-31 20 -47 30.5t-33 10.5q-29 0 -47 -20.5t-41 -53.5z" />
<glyph unicode="&#x2000;" horiz-adv-x="900" />
<glyph unicode="&#x2001;" horiz-adv-x="1800" />
<glyph unicode="&#x2002;" horiz-adv-x="900" />
<glyph unicode="&#x2003;" horiz-adv-x="1800" />
<glyph unicode="&#x2004;" horiz-adv-x="600" />
<glyph unicode="&#x2005;" horiz-adv-x="450" />
<glyph unicode="&#x2006;" horiz-adv-x="300" />
<glyph unicode="&#x2007;" horiz-adv-x="300" />
<glyph unicode="&#x2008;" horiz-adv-x="225" />
<glyph unicode="&#x2009;" horiz-adv-x="360" />
<glyph unicode="&#x200a;" horiz-adv-x="100" />
<glyph unicode="&#x2010;" horiz-adv-x="612" d="M78 461l41 235h442l-41 -235h-442z" />
<glyph unicode="&#x2011;" horiz-adv-x="612" d="M78 461l41 235h442l-41 -235h-442z" />
<glyph unicode="&#x2012;" horiz-adv-x="612" d="M78 461l41 235h442l-41 -235h-442z" />
<glyph unicode="&#x2013;" horiz-adv-x="933" d="M78 461l41 235h764l-41 -235h-764z" />
<glyph unicode="&#x2014;" horiz-adv-x="1271" d="M78 461l41 235h1102l-41 -235h-1102z" />
<glyph unicode="&#x2018;" horiz-adv-x="421" d="M111 793l55 301l199 290l108 -73l-117 -219h78l-53 -299h-270z" />
<glyph unicode="&#x2019;" horiz-adv-x="417" d="M129 846l117 219h-78l53 299h271l-56 -301l-198 -291z" />
<glyph unicode="&#x201a;" horiz-adv-x="450" d="M-31 -219l117 219h-78l53 299h271l-56 -301l-198 -291z" />
<glyph unicode="&#x201c;" horiz-adv-x="800" d="M111 793l55 301l199 290l108 -73l-117 -219h78l-53 -299h-270zM489 793l56 301l198 290l109 -73l-117 -219h78l-53 -299h-271z" />
<glyph unicode="&#x201d;" horiz-adv-x="800" d="M129 846l117 219h-78l53 299h271l-56 -301l-198 -291zM508 846l117 219h-78l53 299h270l-55 -301l-199 -291z" />
<glyph unicode="&#x201e;" horiz-adv-x="829" d="M-31 -219l117 219h-78l53 299h271l-56 -301l-198 -291zM348 -219l117 219h-78l53 299h271l-56 -301l-198 -291z" />
<glyph unicode="&#x2022;" horiz-adv-x="733" d="M133 662q0 57 18.5 105t52.5 84t81 56.5t102 20.5t101.5 -20.5t80 -56.5t53 -84t19.5 -105t-19.5 -105.5t-53 -84.5t-80 -56.5t-101.5 -20.5t-102 20.5t-81 56.5t-52.5 84.5t-18.5 105.5z" />
<glyph unicode="&#x2026;" horiz-adv-x="1314" d="M0 0l55 315h271l-56 -315h-270zM438 0l56 315h270l-55 -315h-271zM877 0l55 315h270l-55 -315h-270z" />
<glyph unicode="&#x202f;" horiz-adv-x="360" />
<glyph unicode="&#x2039;" horiz-adv-x="628" d="M72 541l262 417l217 -135l-195 -291l117 -325l-246 -84z" />
<glyph unicode="&#x203a;" horiz-adv-x="628" d="M82 258l194 291l-116 325l246 84l155 -417l-262 -418z" />
<glyph unicode="&#x205f;" horiz-adv-x="450" />
<glyph unicode="&#x20ac;" horiz-adv-x="917" d="M41 408l39 200h127l26 146h-131l39 200h127l6 33q20 106 51 182t81.5 125t124 72t182.5 23q76 0 147.5 -14.5t118.5 -33.5l-47 -223q-41 16 -95.5 26.5t-107.5 10.5q-51 0 -82 -8t-50 -28.5t-31.5 -58.5t-24.5 -95l-2 -11h321l-39 -200h-317l-27 -146h322l-39 -200h-318 l-2 -13q-4 -16 -6 -35.5t-2 -35.5q0 -59 33 -87t119 -28q45 0 99 6t87 16l4 -223q-18 -6 -48 -12t-63.5 -10t-70.5 -7.5t-70 -3.5q-188 0 -275 87.5t-87 226.5q0 29 2 48t6 48l4 23h-131z" />
<glyph unicode="&#x2122;" horiz-adv-x="948" d="M180 1255v109h332v-109h-104v-297h-123v297h-105zM557 958l12 406h111l94 -223l94 223h111l12 -406h-110l-4 179l-52 -127h-102l-51 127l-4 -179h-111z" />
<glyph unicode="&#x25fc;" horiz-adv-x="1013" d="M0 0v1014h1014v-1014h-1014z" />
<glyph unicode="&#xfb01;" horiz-adv-x="915" d="M-125 -276q63 63 104 132.5t58 168.5l131 739h-94l41 233h94l31 177q27 154 109.5 213t223.5 59q86 0 162 -17.5t135 -48.5l-55 -209q-41 16 -99.5 28.5t-115.5 12.5q-43 0 -66.5 -18t-31.5 -66l-23 -131h318l123 19l-179 -1016h-270l133 764h-166l-135 -764 q-12 -76 -38.5 -140.5t-60.5 -118.5t-73 -95t-78 -70z" />
<glyph unicode="&#xfb02;" horiz-adv-x="952" d="M-125 -276q63 63 104 130.5t58 165.5l131 744h-94l41 233h94l31 177q25 141 96.5 206.5t212.5 65.5q66 0 119 -9.5t116 -27.5l248 37l-254 -1446h-270l211 1200q-31 8 -60.5 10t-64.5 2q-41 0 -61.5 -16t-28.5 -57l-25 -142h137l-41 -233h-137l-135 -764 q-12 -76 -38.5 -140.5t-60.5 -118.5t-73 -95t-78 -70z" />
</font>
</defs>
</svg>
